<svg width="400" height="80" viewBox="0 0 400 80" xmlns="http://www.w3.org/2000/svg">
  <rect width="100%" height="100%" rx="8" fill="url(#g)"/>
  <defs>
    <linearGradient id="g" x1="0" x2="1">
      <stop offset="0%" stop-color="#1E3A8A"/>
      <stop offset="100%" stop-color="#0EA5E9"/>
    </linearGradient>
  </defs>
  <g opacity="0.85"><rect x="12" y="68" width="24.857142857142858" height="0" rx="3" fill="#14B8A6"/><rect x="39" y="68" width="24.857142857142858" height="0" rx="3" fill="#14B8A6"/><rect x="66" y="68" width="24.857142857142858" height="0" rx="3" fill="#14B8A6"/><rect x="93" y="68" width="24.857142857142858" height="0" rx="3" fill="#14B8A6"/><rect x="119" y="68" width="24.857142857142858" height="0" rx="3" fill="#14B8A6"/><rect x="146" y="68" width="24.857142857142858" height="0" rx="3" fill="#14B8A6"/><rect x="173" y="68" width="24.857142857142858" height="0" rx="3" fill="#14B8A6"/><rect x="200" y="68" width="24.857142857142858" height="0" rx="3" fill="#14B8A6"/><rect x="227" y="68" width="24.857142857142858" height="0" rx="3" fill="#14B8A6"/><rect x="254" y="68" width="24.857142857142858" height="0" rx="3" fill="#14B8A6"/><rect x="281" y="68" width="24.857142857142858" height="0" rx="3" fill="#14B8A6"/><rect x="307" y="68" width="24.857142857142858" height="0" rx="3" fill="#14B8A6"/><rect x="334" y="68" width="24.857142857142858" height="0" rx="3" fill="#14B8A6"/><rect x="361" y="12" width="24.857142857142858" height="56" rx="3" fill="#14B8A6"/></g>
  <text x="12" y="78" fill="#fff" font-size="10" opacity="0.9">Active commits (last 14 days)</text>
</svg>